PathFileType	4	(X/Y/Z)	1_2_rein_116_p1_0-168_filt_butterworth.trc
DataRate	CameraRate	NumFrames	NumMarkers	Units	OrigDataRate	OrigDataStartFrame	OrigNumFrames
60.0	60.0	5	27	m	60.0	0	168
Frame#	Time	RHip			RKnee			RAnkle			RBigToe			RSmallToe			RHeel			LHip			LKnee			LAnkle			LBigToe			LSmallToe			LHeel			Neck			Head			Nose			RShoulder			RElbow			RWrist			RThumb			RIndex			RPinky			LShoulder			LElbow			LWrist			LThumb			LIndex			LPinky			
		X1	Y1	Z1	X2	Y2	Z2	X3	Y3	Z3	X4	Y4	Z4	X5	Y5	Z5	X6	Y6	Z6	X7	Y7	Z7	X8	Y8	Z8	X9	Y9	Z9	X10	Y10	Z10	X11	Y11	Z11	X12	Y12	Z12	X13	Y13	Z13	X14	Y14	Z14	X15	Y15	Z15	X16	Y16	Z16	X17	Y17	Z17	X18	Y18	Z18	X19	Y19	Z19	X20	Y20	Z20	X21	Y21	Z21	X22	Y22	Z22	X23	Y23	Z23	X24	Y24	Z24	X25	Y25	Z25	X26	Y26	Z26	X27	Y27	Z27	
0	0.0	0.3755176059165729	0.25215265483406785	1.1140203290596729	0.35982181401565994	0.34798471139523945	1.5168932099742214	0.34389597115004406	0.41248810399964675	1.9629271574075862	0.33437596426455635	0.19179677405792098	1.9873776987908567	0.38698101718336747	0.22541250071702787	1.9941259915285747	0.3318801477719237	0.4715748007743828	2.0121525867559593	0.1365016942590732	0.2694249629209896	1.1267392987686136	0.16976870426569485	0.30538604470371045	1.5081777716031608	0.1952491400309011	0.3767682795017972	1.931370729689902	0.1661713920935761	0.22267850731537403	2.0062570642437576	0.13063479663179695	0.22738972414369218	1.973713543933854	0.2115303208314503	0.4457027899071836	1.9962736358395345	0.25279784084151097	0.1907388912488638	0.4634430836054451	0.254807908860245	0.11039098688939535	0.2157985312208929	0.24498599858289466	0.06658941079356642	0.3585793318022502	0.44373628148489674	0.16904903375075675	0.5499672174525422	0.4764948311357176	0.13689302034247638	0.8638598505333057	0.3120055966154472	0.04626350981928258	1.0392377217109814	0.2693193445248244	-0.0037361240557915185	1.1149268156204288	0.24974328484677644	0.030020896444741277	1.1350815113778392	0.2474774270574993	0.05556177902712399	1.1374641073144534	0.092826089477239	0.24113866194726352	0.5628030104928755	0.0608972087279194	0.1675341629910681	0.8449441258564193	0.1813627084112118	0.016797771165102837	1.0368049080161033	0.2922453281939453	0.0011856629137768232	1.0871491474588848	0.28968971810951216	-0.009343487311044178	1.1110446646045582	0.23833528754378672	0.03977794593540682	1.1530040026753416
1	0.0166666666666666	0.3733000170951553	0.2448753237292316	1.1125508589932744	0.3593227042278701	0.35060208317662067	1.5244850873367546	0.3463555824848851	0.4203474715060972	1.9659095424976631	0.3348403317410663	0.19216221549802476	1.9874955995560208	0.3896430832307605	0.23057733378324724	1.9986631089667837	0.3328383387466419	0.47256380257786346	2.0165382806868535	0.13655825001173763	0.2686253795155267	1.1282768822579377	0.16967184534821353	0.30522481085837316	1.5082513381883391	0.1954542785470667	0.37781945526238064	1.9364792755423117	0.16898869526232738	0.2099641197035569	2.001137568698641	0.12926471626598537	0.22668242931325375	1.9745244701197182	0.21128873466846912	0.445507281559744	1.9986968542799532	0.25518140420597424	0.19189615538722787	0.4633469412052814	0.2548335918010879	0.11036877674978367	0.2158900345075553	0.24707423601491607	0.0725276725777368	0.35824896299551073	0.4440254221561095	0.16971628822868923	0.55225105575798	0.4775107619328432	0.1357424023855428	0.8614543447429907	0.30866554437619304	0.042852887789134333	1.0387477714590487	0.2670076919714784	-0.0027807633665760147	1.1161491626834716	0.2502884303025325	0.028385301890235415	1.1349963222449608	0.24607515058750398	0.059694948199133055	1.1390627642207778	0.09048315732758433	0.2399631754331124	0.5628998401793439	0.06175938109135652	0.168149881739817	0.8450375192899392	0.18134436300365586	0.016802639623863993	1.0368118853607462	0.2897441393791651	-9.523458966499427e-05	1.0873065835377687	0.2892320013237123	-0.00940460530757043	1.1111832475070054	0.23564166463935915	0.04772450183254387	1.1536207895906878
2	0.0333333333333333	0.3719378861362748	0.24047935542510335	1.111682472825465	0.3596651812650735	0.3500335386586746	1.5293285190558923	0.34774660027302906	0.4253833076056277	1.9669711207241927	0.335511308687647	0.19320919922838312	1.9868549593365146	0.3902217145870165	0.23216777135724753	1.9995276179083041	0.33329484438053614	0.4736447979349529	2.018534783215085	0.13705990504523122	0.26677200458030736	1.128584007253825	0.1696199068248873	0.3051475450980902	1.5084420609397409	0.19537262929102742	0.3781379982381828	1.9387042544477076	0.17109541480950446	0.198249853044304	1.9955630862519618	0.12896337898580443	0.22649857960271025	1.9752355323494188	0.21115287493874496	0.4455765086148605	2.000261000006885	0.25661287420642453	0.1926334179179244	0.4633041203950886	0.2548561846727799	0.1103599129323593	0.21598944274921092	0.24833972044371994	0.0760480463869374	0.35835665992497145	0.4438070549653089	0.17165696761940186	0.5534422963515075	0.4784079030554732	0.13853561473276657	0.8605502604317501	0.30670407437483904	0.04116407322014684	1.0385652923716826	0.2648108379886703	-0.00016707004416183224	1.1174413681427768	0.24929687784751467	0.03097328393073516	1.1360204377024503	0.24481454032697342	0.0637661483494944	1.140579588493475	0.08909787954736564	0.23935034268191502	0.5629533092099487	0.06179392746259821	0.16825242305268795	0.8450649945460995	0.18139953479650509	0.016776208665034386	1.0368431098605748	0.28832481692840195	-0.0011246960066755868	1.0880213704473567	0.2889851293286418	-0.009398698925797498	1.1112512723313717	0.23407000605158673	0.05228049415351663	1.15466192023045
3	0.05	0.3714872080396541	0.23921039927817409	1.1114624843853549	0.3605549932139929	0.34773286431386563	1.5312208467339132	0.34804098723116705	0.42756655032889096	1.9664170442584348	0.33625809306474785	0.19509062204201172	1.9852527924849832	0.38888542626841754	0.23037150706752613	1.9966771966317887	0.3332201486776918	0.47473586933064177	2.0180476262924048	0.13829348133944075	0.2631352761644234	1.1276796426068199	0.16975427949122637	0.3053035948739852	1.5087819773983926	0.19504090105649918	0.37774304540260045	1.9380535286622522	0.17244779818094577	0.1895047233380615	1.9904340304480144	0.12942202131215763	0.22662727642848912	1.9758804920786706	0.21112914068748334	0.4458440070948927	2.0008561982862902	0.2570071941624502	0.19288370858008663	0.4633142475047753	0.2548668091290563	0.110320921991617	0.21599506728000853	0.24872470990313233	0.07691812089698385	0.35908088272035654	0.4428494234043807	0.17570724189440684	0.5533700749586058	0.4790567117463374	0.14398422302030728	0.8610287031363645	0.306152580319774	0.04099445615900049	1.038630618843125	0.2629829976046824	0.003627144276474153	1.1185138078902452	0.24725969251128302	0.036437666179144845	1.1375951544170508	0.24401785702079173	0.06642977500317736	1.1416574113790736	0.08866714566563519	0.23901028146622916	0.562955930676974	0.06128203355257376	0.1679410810878537	0.8450406610509873	0.1815101193981928	0.016718754789392463	1.0368883733819805	0.2880015027654165	-0.001759287570790804	1.0891438228461707	0.28901359521889103	-0.009295583479314647	1.111241179579388	0.2336917016869417	0.05328946637971259	1.1560327320812467
4	0.0666666666666666	0.37148212096751937	0.23949454535432452	1.1115493279004864	0.3612222554730262	0.34633627810384854	1.531097219728145	0.3478851898732674	0.42842753560656854	1.9657765453927432	0.3367447443422713	0.1972031437234477	1.9831915426952968	0.3874137435278013	0.2279632403897284	1.9930114692844358	0.3329249676043655	0.4756264469628762	2.016596695653729	0.13992938108876907	0.25858449569061454	1.1265354314778082	0.17032358716743334	0.3056829668304902	1.509006900413487	0.19472581908231662	0.37718549123520445	1.9365466563260278	0.17321815408269792	0.1857076752808738	1.9871333211317173	0.12983961304255093	0.22669932658973552	1.976360644254417	0.21116692407882337	0.44605734082061077	2.0008958460464066	0.2568822697103249	0.19285979991201563	0.4633414553622257	0.2548577263965137	0.11014280389007791	0.21566138479823943	0.24868279971158724	0.07647777107603382	0.3601171164009313	0.4415069876201194	0.18085548332323387	0.5526787783472598	0.4788785638714914	0.14849548309351338	0.8619415410955052	0.3059248069069899	0.04030283112858716	1.0385483306457293	0.2618824186711807	0.006571494442902924	1.1190922245645891	0.24563863280023285	0.040747902458360526	1.1385423370492962	0.24360605112134506	0.06627261714230483	1.1420472133201454	0.08846809144804743	0.23784493390596761	0.5629186781472149	0.060911407176533344	0.16753391618018268	0.8450116668213865	0.181505599279182	0.016646639751811815	1.03683905438748	0.28813450179399	-0.0019995643595284458	1.090086355870976	0.2892241132712236	-0.009114133777537977	1.1112172100387734	0.2338580793967069	0.052829127004723135	1.1571270055478353
